HIERARCHY
ROOT Hips
{
	OFFSET 0.000000 89.005402 0.000000
	CHANNELS 6 Xposition Yposition Zposition Xrotation Yrotation Zrotation
	JOINT Spine
	{
		OFFSET 0.116900 10.681000 0.373400
		CHANNELS 3 Xrotation Yrotation Zrotation
		JOINT Spine1
		{
			OFFSET 0.000000 13.840401 0.053500
			CHANNELS 3 Xrotation Yrotation Zrotation
			JOINT Spine2
			{
				OFFSET 0.000000 14.712700 -0.366200
				CHANNELS 3 Xrotation Yrotation Zrotation
				JOINT Neck
				{
					OFFSET 0.000000 35.415497 -3.314200
					CHANNELS 3 Xrotation Yrotation Zrotation
					JOINT Head
					{
						OFFSET 0.000000 16.899200 1.218300
						CHANNELS 3 Xrotation Yrotation Zrotation
						JOINT HeadTop_End
						{
							OFFSET 0.000000 22.206207 2.192500
							CHANNELS 3 Xrotation Yrotation Zrotation
							End Site
							{
								OFFSET 0.000000 22.314178 0.000000
							}
						}
					}
				}
				JOINT LeftShoulder
				{
					OFFSET 12.896400 26.716293 -4.548400
					CHANNELS 3 Xrotation Yrotation Zrotation
					JOINT LeftArm
					{
						OFFSET 19.027000 -4.857010 -1.718400
						CHANNELS 3 Xrotation Yrotation Zrotation
						JOINT LeftForeArm
						{
							OFFSET 24.179897 0.000000 0.000000
							CHANNELS 3 Xrotation Yrotation Zrotation
							JOINT LeftHand
							{
								OFFSET 27.156403 0.000000 0.000000
								CHANNELS 3 Xrotation Yrotation Zrotation
								JOINT LeftHandIndex1
								{
									OFFSET 16.441200 0.000000 0.000000
									CHANNELS 3 Xrotation Yrotation Zrotation
									JOINT LeftHandIndex2
									{
										OFFSET 4.821899 0.000000 0.000000
										CHANNELS 3 Xrotation Yrotation Zrotation
										JOINT LeftHandIndex3
										{
											OFFSET 6.386497 0.000000 0.000000
											CHANNELS 3 Xrotation Yrotation Zrotation
											JOINT LeftHandIndex4
											{
												OFFSET 5.188988 0.000000 0.000000
												CHANNELS 3 Xrotation Yrotation Zrotation
												End Site
												{
													OFFSET -0.178703 5.185913 0.000177
												}
											}
										}
									}
								}
								JOINT LeftHandThumb1
								{
									OFFSET 6.534897 -5.032593 5.900300
									CHANNELS 3 Xrotation Yrotation Zrotation
									JOINT LeftHandThumb2
									{
										OFFSET 3.818176 -2.204422 2.204423
										CHANNELS 3 Xrotation Yrotation Zrotation
										JOINT LeftHandThumb3
										{
											OFFSET 3.252098 -1.877594 1.877601
											CHANNELS 3 Xrotation Yrotation Zrotation
											JOINT LeftHandThumb4
											{
												OFFSET 5.251778 -3.032120 3.032117
												CHANNELS 3 Xrotation Yrotation Zrotation
												End Site
												{
													OFFSET 0.000023 6.780014 0.000000
												}
											}
										}
									}
								}
							}
						}
					}
				}
				JOINT RightShoulder
				{
					OFFSET -12.896300 26.716293 -4.548400
					CHANNELS 3 Xrotation Yrotation Zrotation
					JOINT RightArm
					{
						OFFSET -19.027000 -4.857010 -1.718400
						CHANNELS 3 Xrotation Yrotation Zrotation
						JOINT RightForeArm
						{
							OFFSET -24.179897 0.000000 0.000000
							CHANNELS 3 Xrotation Yrotation Zrotation
							JOINT RightHand
							{
								OFFSET -27.156403 0.000000 0.000000
								CHANNELS 3 Xrotation Yrotation Zrotation
								JOINT RightHandThumb1
								{
									OFFSET -6.591202 -4.852203 5.988100
									CHANNELS 3 Xrotation Yrotation Zrotation
									JOINT RightHandThumb2
									{
										OFFSET -3.818176 -2.204422 2.204423
										CHANNELS 3 Xrotation Yrotation Zrotation
										JOINT RightHandThumb3
										{
											OFFSET -3.252098 -1.877594 1.877601
											CHANNELS 3 Xrotation Yrotation Zrotation
											JOINT RightHandThumb4
											{
												OFFSET -5.251778 -3.032120 3.032117
												CHANNELS 3 Xrotation Yrotation Zrotation
												End Site
												{
													OFFSET -0.000023 6.780014 0.000000
												}
											}
										}
									}
								}
								JOINT RightHandIndex1
								{
									OFFSET -16.029404 0.000000 0.000000
									CHANNELS 3 Xrotation Yrotation Zrotation
									JOINT RightHandIndex2
									{
										OFFSET -5.213303 0.000000 0.000000
										CHANNELS 3 Xrotation Yrotation Zrotation
										JOINT RightHandIndex3
										{
											OFFSET -6.386528 0.000000 0.000000
											CHANNELS 3 Xrotation Yrotation Zrotation
											JOINT RightHandIndex4
											{
												OFFSET -5.189026 0.000000 0.000000
												CHANNELS 3 Xrotation Yrotation Zrotation
												End Site
												{
													OFFSET 0.236702 5.183624 0.001972
												}
											}
										}
									}
								}
							}
						}
					}
				}
			}
		}
	}
	JOINT LeftUpLeg
	{
		OFFSET 14.073000 -7.904099 -1.463000
		CHANNELS 3 Xrotation Yrotation Zrotation
		JOINT LeftLeg
		{
			OFFSET -0.109806 -34.073280 4.093200
			CHANNELS 3 Xrotation Yrotation Zrotation
			JOINT LeftFoot
			{
				OFFSET 0.109806 -29.899420 -6.319000
				CHANNELS 3 Xrotation Yrotation Zrotation
				JOINT LeftToeBase
				{
					OFFSET 1.551100 -14.988700 20.535801
					CHANNELS 3 Xrotation Yrotation Zrotation
					JOINT LeftToe_End
					{
						OFFSET 0.221200 0.570800 13.248301
						CHANNELS 3 Xrotation Yrotation Zrotation
						End Site
						{
							OFFSET 0.000000 13.262435 0.000000
						}
					}
				}
			}
		}
	}
	JOINT RightUpLeg
	{
		OFFSET -13.839300 -7.904099 -1.463000
		CHANNELS 3 Xrotation Yrotation Zrotation
		JOINT RightLeg
		{
			OFFSET 0.109694 -34.073219 4.093300
			CHANNELS 3 Xrotation Yrotation Zrotation
			JOINT RightFoot
			{
				OFFSET -0.109694 -29.899384 -6.319200
				CHANNELS 3 Xrotation Yrotation Zrotation
				JOINT RightToeBase
				{
					OFFSET -1.551100 -14.988700 20.535801
					CHANNELS 3 Xrotation Yrotation Zrotation
					JOINT RightToe_End
					{
						OFFSET -0.221200 0.570900 13.248299
						CHANNELS 3 Xrotation Yrotation Zrotation
						End Site
						{
							OFFSET 0.000000 13.262440 0.000000
						}
					}
				}
			}
		}
	}
}
MOTION
Frames: 7
Frame Time: 0.033333
-0.097929 77.850006 1.104086 0.082464 -34.966897 1.074384 12.011651 6.889100 -0.278147 2.189364 0.943217 -0.885136 2.200522 0.923386 -0.876947 4.874012 3.849121 -4.472482 7.132688 8.590362 -7.207982 0.000000 -0.000000 -0.000000 2.158297 4.320551 -8.936715 -28.695172 -17.289307 -59.641314 0.000019 -128.110839 0.000023 18.090031 2.728731 12.053858 8.149250 6.763912 -100.644074 9.380665 6.413246 -111.345409 8.149248 6.763909 -100.644074 -0.000000 -0.000001 0.000001 22.112877 14.183673 -23.763929 34.105436 50.688586 3.889600 11.578192 34.898623 6.131089 0.000000 -0.000001 0.000000 1.850154 5.949193 -1.666459 -44.899734 41.212774 74.851927 0.000028 113.183324 -0.000054 -11.812361 15.234541 -12.422443 24.135088 -7.619435 9.651684 56.104427 -18.245691 13.101082 2.228488 -35.093942 -11.388788 0.000001 0.000002 -0.000003 8.943555 -6.656921 106.727320 9.724427 -6.372000 113.601885 9.724428 -6.372017 113.601878 0.000000 -0.000000 0.000000 -34.594587 8.039741 22.121900 44.813319 -9.852351 2.968002 -6.326217 1.443194 -15.989336 -4.816520 -0.000047 0.004678 0.000000 0.000000 -0.000000 -4.161117 -12.652605 -18.682007 38.201504 -2.848864 -0.345054 -31.164234 -7.139776 18.769744 -1.002029 -0.000017 -0.000005 0.000000 0.000002 0.000000 
0.238779 77.376747 1.802368 -0.064094 -34.778166 0.985023 12.620770 6.901977 -0.479387 2.083054 0.945675 -0.708369 2.091980 0.929319 -0.702627 4.882717 3.694555 -4.214038 7.046080 8.049596 -7.188623 0.000002 -0.000000 0.000000 2.176767 4.244204 -8.935883 -28.682819 -17.974647 -59.668546 0.000032 -126.092163 0.000036 18.615448 3.943570 11.730233 8.149248 6.763911 -100.644067 9.380665 6.413247 -111.345409 8.149246 6.763907 -100.644067 -0.000001 -0.000002 -0.000000 22.112876 14.183671 -23.763929 34.105429 50.688589 3.889599 11.578191 34.898616 6.131088 0.000001 0.000000 -0.000003 1.853511 5.880151 -1.652285 -45.072227 41.223456 74.756769 -0.000007 112.059635 -0.000004 -12.073427 15.311298 -12.531715 24.135088 -7.619432 9.651683 56.104427 -18.245693 13.101084 2.228489 -35.093946 -11.388791 0.000000 -0.000001 0.000001 8.943556 -6.656919 106.727320 9.724429 -6.372001 113.601878 9.724427 -6.372015 113.601885 -0.000000 -0.000003 0.000000 -36.075174 7.116404 21.335426 48.871814 -8.637754 3.296693 -6.723562 2.118755 -15.684546 -6.583281 -0.000011 -0.000004 -0.000000 -0.000001 -0.000000 -3.840717 -12.423484 -19.314044 38.761576 -2.838918 -0.488576 -31.649171 -7.550839 19.634552 -0.992581 -0.000002 -0.000002 -0.000000 -0.000000 -0.000000 
0.738185 76.543648 2.732401 -0.552633 -34.784705 0.799484 13.535960 7.083431 -0.543556 1.956503 0.966268 -0.595771 1.964077 0.951580 -0.593209 4.858442 3.545891 -4.014061 6.681455 7.509773 -7.103418 -0.000002 0.000001 0.000000 2.195866 4.265565 -8.990890 -27.844321 -18.649859 -59.583107 0.000006 -124.802050 0.000011 19.180536 4.670447 11.645636 8.149250 6.763912 -100.644067 9.380660 6.413246 -111.345409 8.149246 6.763906 -100.644074 -0.000000 -0.000005 -0.000001 22.112876 14.183672 -23.763925 34.105429 50.688593 3.889596 11.578190 34.898623 6.131085 -0.000000 -0.000000 -0.000002 1.920505 5.906612 -1.595109 -45.198818 41.419223 74.639638 0.000078 110.946656 -0.000088 -11.959016 15.560547 -12.669021 24.135086 -7.619436 9.651685 56.104434 -18.245691 13.101080 2.228487 -35.093942 -11.388797 -0.000001 0.000001 -0.000001 8.943554 -6.656920 106.727320 9.724428 -6.372004 113.601878 9.724428 -6.372016 113.601878 0.000000 0.000000 0.000001 -38.760822 5.823301 20.788314 55.138461 -9.009921 3.737405 -6.295366 1.902505 -15.218677 -9.807160 -0.000894 0.033060 0.000000 0.000002 0.000000 -3.800178 -12.594584 -20.744441 40.196947 -1.764429 -0.641427 -32.695258 -8.120020 20.447819 -0.986011 0.000005 0.000002 -0.000000 0.000000 0.000000 
1.366538 75.298973 4.110772 -1.299238 -35.298677 0.634887 14.792912 7.506561 -0.615408 1.829586 1.014030 -0.580415 1.836981 0.998762 -0.581640 4.799004 3.405227 -3.874091 5.957252 6.998220 -6.953802 -0.000002 0.000001 -0.000001 2.212602 4.452996 -9.133766 -25.751688 -19.287727 -59.357014 -0.000025 -124.318363 -0.000021 19.787195 4.637213 11.920941 8.149250 6.763911 -100.644067 9.380661 6.413246 -111.345409 8.149246 6.763909 -100.644074 -0.000002 -0.000001 -0.000000 22.112877 14.183674 -23.763929 34.105433 50.688586 3.889604 11.578193 34.898619 6.131080 -0.000000 0.000001 -0.000002 2.085620 6.030897 -1.464671 -44.999287 41.802534 74.453980 0.000050 109.867206 -0.000054 -11.302642 16.045996 -12.763959 24.135090 -7.619435 9.651684 56.104437 -18.245689 13.101075 2.228486 -35.093942 -11.388799 0.000003 -0.000001 -0.000003 8.943555 -6.656926 106.727320 9.724429 -6.372001 113.601885 9.724425 -6.372017 113.601878 -0.000000 0.000001 0.000002 -42.642609 4.024379 21.048329 62.720876 -8.287536 3.897953 -4.060938 -2.516309 -14.847334 -15.712124 -0.027058 0.200163 0.000000 -0.000002 -0.000000 -4.110217 -13.048715 -23.158830 42.337358 0.670778 -1.055403 -34.295268 -8.883677 21.256966 -1.126631 0.000005 -0.000005 -0.000000 -0.000005 -0.000000 
1.974609 73.898514 5.925784 -2.014654 -36.570072 0.717002 15.888161 8.274515 -0.756518 1.766959 1.111214 -0.780768 1.777442 1.089328 -0.784898 4.800917 3.302522 -3.834178 5.189438 6.750091 -7.183113 0.000000 -0.000001 0.000000 2.191151 5.036101 -9.435647 -21.687997 -19.471264 -59.213123 0.000006 -125.149816 0.000015 20.441318 3.624490 12.395531 8.149249 6.763916 -100.644074 9.380659 6.413250 -111.345409 8.149247 6.763907 -100.644074 -0.000001 0.000000 0.000001 22.112877 14.183670 -23.763929 34.105433 50.688586 3.889596 11.578193 34.898619 6.131085 -0.000000 -0.000001 -0.000001 2.465617 6.213358 -1.149856 -44.657980 42.492816 74.504728 0.000007 108.973196 -0.000001 -10.452022 16.675748 -12.439554 24.135088 -7.619437 9.651686 56.104434 -18.245691 13.101077 2.228489 -35.093942 -11.388794 -0.000003 0.000001 -0.000002 8.943554 -6.656924 106.727320 9.724426 -6.372001 113.601885 9.724426 -6.372014 113.601885 0.000001 -0.000001 -0.000001 -46.482176 2.347138 21.899424 69.584956 -8.057975 3.555309 -0.506001 -8.761158 -13.535488 -22.557226 -0.203903 0.663457 0.000000 0.000002 0.000000 -4.845042 -13.562591 -26.388800 44.399699 4.305158 -1.848586 -35.980678 -9.668622 21.925165 -1.408247 0.000001 0.000007 0.000000 -0.000000 0.000000 
2.432758 72.733231 8.033268 -2.138335 -38.909733 1.293678 16.494205 9.083887 -0.901327 1.718763 1.224654 -1.130528 1.735601 1.190943 -1.136696 4.755725 3.279456 -3.878070 4.798490 6.973340 -8.246064 0.000002 0.000000 -0.000000 2.118346 5.967726 -9.898559 -16.412579 -19.145954 -59.089353 0.000012 -127.208366 0.000019 20.742986 1.590026 12.252369 8.149250 6.763914 -100.644067 9.380666 6.413245 -111.345409 8.149248 6.763905 -100.644067 0.000000 -0.000000 -0.000002 22.112876 14.183673 -23.763927 34.105433 50.688586 3.889597 11.578194 34.898619 6.131085 0.000000 -0.000004 -0.000002 2.936512 6.301268 -0.734154 -44.244678 43.643635 74.818459 0.000143 107.997189 -0.000142 -9.741114 17.049161 -11.971227 24.135088 -7.619431 9.651683 56.104434 -18.245691 13.101081 2.228488 -35.093946 -11.388797 0.000001 0.000002 0.000001 8.943556 -6.656918 106.727320 9.724427 -6.372003 113.601885 9.724426 -6.372014 113.601878 -0.000000 -0.000002 -0.000001 -49.087128 1.061270 23.711661 73.216691 -8.740637 2.787490 3.334528 -13.058031 -13.020509 -27.524052 -0.656129 1.421888 -0.000000 -0.000002 -0.000000 -6.438252 -13.913906 -30.000670 45.560452 8.738588 -2.993555 -36.969673 -10.201194 22.380291 -1.641942 -0.000021 0.000000 -0.000000 0.000002 0.000000 
2.908685 71.985764 10.135172 -1.497295 -42.061340 2.514119 16.728288 9.475630 -1.258640 1.614395 1.296916 -1.489195 1.637789 1.251496 -1.497573 4.420972 3.451812 -4.165757 4.677323 8.043694 -10.347747 0.000002 0.000000 -0.000000 1.951698 7.079940 -10.350460 -11.211011 -18.190056 -58.390529 -0.000008 -130.004236 0.000003 20.073847 -1.224224 11.024168 8.149252 6.763908 -100.644067 9.380663 6.413250 -111.345416 8.149246 6.763909 -100.644074 0.000001 0.000001 0.000000 22.112883 14.183672 -23.763929 34.105433 50.688589 3.889598 11.578193 34.898616 6.131086 0.000002 -0.000000 0.000001 3.267396 6.286488 -0.419298 -43.819895 45.461630 75.416483 0.000047 106.663683 -0.000055 -9.059110 16.856079 -11.863999 24.135090 -7.619431 9.651682 56.104434 -18.245688 13.101076 2.228488 -35.093942 -11.388790 0.000001 0.000002 0.000000 8.943556 -6.656918 106.727320 9.724429 -6.372002 113.601878 9.724429 -6.372016 113.601885 -0.000000 -0.000001 0.000000 -50.026027 0.382251 26.668240 72.226136 -10.021545 1.974037 6.742636 -12.502772 -15.924721 -28.975759 -0.902658 1.780872 -0.000000 -0.000003 0.000000 -9.048465 -13.792659 -33.739895 45.607629 11.896708 -4.420957 -36.582001 -9.533862 23.923146 -1.646354 -0.000019 -0.000005 -0.000000 0.000002 0.000000 
